<svg xmlns="http://www.w3.org/2000/svg" viewBox="0 0 1200 630" width="1200" height="630">
  <defs>
    <linearGradient id="bg" x1="0" y1="0" x2="1" y2="1">
      <stop offset="0" stop-color="#062A6E"/>
      <stop offset="1" stop-color="#1763E6"/>
    </linearGradient>
    <linearGradient id="mark" x1="0" y1="0" x2="1" y2="1">
      <stop offset="0" stop-color="#fff"/>
      <stop offset="1" stop-color="#38BDF8"/>
    </linearGradient>
  </defs>
  <rect width="1200" height="630" fill="url(#bg)"/>
  <circle cx="980" cy="120" r="240" fill="#38BDF8" opacity="0.18"/>
  <circle cx="160" cy="560" r="200" fill="#fff" opacity="0.06"/>
  <g transform="translate(96,235)">
    <rect width="92" height="92" rx="24" fill="url(#mark)"/>
    <path fill="#062A6E" d="M46 22c-8 0-12 4-16 4s-7-3-9-1.5c-4 2-4 9-2 18 1.5 8 3 18 7 24 2.5 3.5 5 1.5 6.5-4 1.3-4.6 2.5-9 6.5-9s5 4.4 6.5 9c1.3 5.5 4 7.5 6.5 4 4-6 5.5-16 7-24 2-9 2-16-2-18-2.5-1.5-5 1-9 1s-8-4-16-4z"/>
  </g>
  <text x="96" y="400" fill="#fff" font-family="Pretendard, sans-serif" font-size="78" font-weight="800" letter-spacing="-3">마곡베스트치과의원</text>
  <text x="98" y="470" fill="#BBD7FF" font-family="Pretendard, sans-serif" font-size="36" font-weight="500">정직한 진료와 맞춤 치료로 끝까지 함께합니다</text>
  <text x="98" y="540" fill="#38BDF8" font-family="Pretendard, sans-serif" font-size="30" font-weight="700">마곡나루역 1번 출구 도보 3분 · 02-2093-6545</text>
</svg>
